<svg width="640" height="480" xmlns="http://www.w3.org/2000/svg" xmlns:svg="http://www.w3.org/2000/svg" xmlns:xlink="http://www.w3.org/1999/xlink">
 <!-- Created with SVG-edit - http://svg-edit.googlecode.com/ -->
 <defs>
  <symbol viewBox="0 0 190.702 190.701" height="190.701px" width="190.702px" y="0px" x="0px" id="svg_28" xmlns:xlink="http://www.w3.org/1999/xlink" xmlns="http://www.w3.org/2000/svg">
   <g>
    <path d="m182.463,73.325c-23.063,-69.656 -109.332,-98.564 -160.228,-40.366c-35.747,40.875 -30.516,130.021 31.249,143.879c11.883,2.666 24.269,0.617 35.811,-4.289c-0.518,2.415 -0.843,4.887 -1.083,7.4c-0.455,4.777 5.044,6.406 8.54,4.9c7.447,-3.211 14.675,-2.933 21.823,-5.635c3.39,5.57 8.012,9.857 15.249,9.697c8.502,-0.189 14.683,-9.041 18.64,-16.002c52.588,24.736 38.305,-74.496 29.999,-99.584zm-25.819,87.618c-5.455,-2.773 -10.424,2.677 -9.468,7.152c-2.924,3.299 -5.917,6.541 -9.531,9.108c-6.189,4.397 -9.689,-3.778 -11.852,-8.203c-1.285,-2.63 -5.255,-3.608 -7.659,-2.009c-5.343,3.559 -11.177,4.135 -17.048,5.174c0.359,-1.891 0.526,-3.799 0.239,-5.915c11.927,-7.509 22.204,-17.794 28.925,-28.513c13.322,-21.248 6.102,-46.629 -9.264,-64.345c-12.527,-14.442 -32.944,-24.258 -52.114,-20.33c-21.727,4.452 -26.86,30.938 -24.381,49.312c5.88,43.579 80.585,22.831 58.531,-19.356c-2.242,-4.291 -9.562,-1.297 -7.878,3.321c10.394,28.509 -34.72,40.778 -38.692,10.931c-4.303,-32.337 23.49,-38.347 45.666,-23.638c24.861,16.491 28.853,46.979 8.513,68.543c-26.144,27.718 -65.388,30.709 -86.485,-3.137c-16.966,-27.216 -14.579,-64.212 2.566,-90.485c22.711,-34.799 64.816,-44.009 100.455,-24.343c28.312,15.622 43.764,46.189 49.179,76.946c2.612,14.838 9.87,74.824 -19.702,59.787z"/>
   </g>
   <g/>
   <g/>
   <g/>
   <g/>
   <g/>
   <g/>
   <g/>
   <g/>
   <g/>
   <g/>
   <g/>
   <g/>
   <g/>
   <g/>
   <g/>
  </symbol>
  <symbol viewBox="0 0 385.4 385.4" y="0px" x="0px" id="svg_49" xmlns:xlink="http://www.w3.org/1999/xlink" xmlns="http://www.w3.org/2000/svg">
   <path d="m355.032,273.487c19.638,-22.416 30.368,-50.841 30.368,-80.919c0,-32.854 -12.794,-63.74 -36.024,-86.971c-23.231,-23.23 -54.118,-36.024 -86.97,-36.024c-32.854,0 -63.74,12.794 -86.971,36.024c-21.054,21.054 -32.862,47.905 -35.429,75.463c-0.632,-0.45 -1.277,-0.882 -1.934,-1.297l0,-25.928c0,-17.877 -14.54,-32.421 -32.411,-32.421l-9.136,0c-3.636,-11.505 -14.409,-19.87 -27.101,-19.87c-8.052,0 -15.327,3.372 -20.503,8.771c-5.176,-5.399 -12.451,-8.771 -20.503,-8.771c-15.67,0.001 -28.418,12.748 -28.418,28.417c0,15.669 12.748,28.417 28.417,28.417c8.052,0 15.327,-3.372 20.503,-8.772c5.176,5.399 12.451,8.772 20.503,8.772c6.383,0 12.28,-2.116 17.029,-5.682c0.028,0.378 0.055,0.756 0.055,1.139l0,30.484c-0.486,0.443 -0.965,0.893 -1.428,1.355c-8.07,8.071 -12.514,18.796 -12.514,30.2c0,26.697 10.397,51.797 29.275,70.677c18.88,18.879 43.98,29.275 70.677,29.275l82.867,0c0,0 9.223,-0.278 10.319,-0.307c31.618,-0.826 61.221,-13.529 83.673,-35.981c1.056,-1.055 5.656,-6.051 5.656,-6.051zm-234.046,-119.652l0,19.714c-1.878,-0.25 -3.779,-0.39 -5.706,-0.39c-4.002,0 -7.924,0.547 -11.686,1.615l0,-20.939c0,-5.443 -1.332,-10.677 -3.84,-15.335l5.908,0c8.449,0 15.324,6.88 15.324,15.335zm-92.569,-12.543c-6.248,0 -11.331,-5.083 -11.331,-11.331c0,-6.248 5.083,-11.33 11.331,-11.33s11.331,5.082 11.331,11.33c0,6.248 -5.083,11.331 -11.331,11.331zm41.006,0c-6.248,0 -11.331,-5.083 -11.331,-11.331c0,-6.248 5.083,-11.33 11.331,-11.33s11.331,5.082 11.331,11.33c0,6.248 -5.083,11.331 -11.331,11.331zm104.186,157.449c-22.253,0 -43.833,-8.467 -59.593,-24.178c-15.711,-15.662 -24.365,-36.511 -24.365,-58.689c0,-6.841 2.667,-13.276 7.508,-18.117c0.911,-0.909 1.905,-1.764 2.956,-2.537c4.422,-3.255 9.666,-4.975 15.165,-4.975c3.74,0 7.33,0.782 10.689,2.332c6.36,2.917 11.308,8.384 13.575,15.008c0.154,0.45 0.314,0.904 0.478,1.365c0.591,1.656 1.024,3.365 1.329,5.097c4.223,24.005 15.58,46.988 34.084,65.493c7.525,7.525 15.857,13.947 24.796,19.202l-26.622,0l0,-0.001zm13.908,-31.284c-41.294,-41.294 -41.294,-108.484 0,-149.778c20.003,-20.003 46.599,-31.02 74.889,-31.02c28.289,0 54.885,11.017 74.888,31.02c20.003,20.003 31.02,46.599 31.02,74.889c0,26.774 -9.874,52.028 -27.889,71.615c-27.81,25.044 -70.82,24.186 -97.585,-2.581c-21.457,-21.457 -21.457,-56.372 0.001,-77.83c16.499,-16.5 43.347,-16.501 59.848,-0.001c12.534,12.533 12.535,32.927 0.002,45.46c-9.359,9.359 -24.59,9.358 -33.951,-0.003c-6.822,-6.824 -6.819,-17.927 0.007,-24.753l-12.082,-12.082c-13.487,13.488 -13.49,35.431 -0.007,48.916c16.023,16.022 42.093,16.023 58.115,0.003c19.194,-19.196 19.193,-50.428 -0.002,-69.624c-23.164,-23.161 -60.852,-23.16 -84.012,0.001c-28.12,28.12 -28.12,73.874 -0.001,101.994c12.699,12.699 28.347,20.693 44.759,23.994c-4.317,0.53 -8.693,0.798 -13.111,0.798c-28.29,0.002 -54.886,-11.014 -74.889,-31.018z"/>
   <g/>
   <g/>
   <g/>
   <g/>
   <g/>
   <g/>
   <g/>
   <g/>
   <g/>
   <g/>
   <g/>
   <g/>
   <g/>
   <g/>
   <g/>
  </symbol>
 </defs>
 <g>
  <title>Layer 1</title>
  <text fill="#000000" stroke-width="0" x="395" y="274.666667" id="svg_2" font-size="24" font-family="serif" text-anchor="middle" xml:space="preserve" transform="matrix(21.903596878051758,0,0,3.787522077560425,-8372.543787062168,-780.0270763598382) " stroke="#000000"/>
  <g id="svg_29"/>
  <g id="svg_33"/>
  <g id="svg_22"/>
  <g stroke="null" transform="rotate(-58.85634994506836 0,0) " id="svg_24"/>
  <use x="-1597.438092" y="-934.912492" transform="matrix(3.747933262442355,0,0,5.467932179711029,394.77599636385133,-701.613706177448) " xlink:href="#svg_28" id="svg_30"/>
  <g id="svg_31"/>
  <g id="svg_36"/>
  <g id="svg_40"/>
  <g id="svg_44"/>
  <text id="svg_5" fill="#000000" stroke-width="0" stroke-dasharray="null" stroke-linejoin="null" stroke-linecap="null" x="-17.461245" y="190.253124" font-size="24" font-family="serif" text-anchor="middle" xml:space="preserve" transform="matrix(3.747933262442355,0,0,5.467932179711029,394.77599636385133,-701.613706177448) " stroke="#000000">le petit escargot</text>
  <use fill="#000000" x="-253.94957" y="478.19588" transform="matrix(3.747933262442355,0,0,5.467932179711029,394.77599636385133,-701.613706177448) " xlink:href="#svg_49" id="svg_50"/>
  <g id="svg_51"/>
  <g id="svg_53"/>
  <g id="svg_57"/>
  <g id="svg_61"/>
  <g id="svg_81">
   <g transform="matrix(0.0785497968339379,0,0,0.09936568422212695,167.69425802564086,93.26110267633645) " id="svg_63">
    <g id="svg_64">
     <path id="svg_65" d="m609.909047,1313.557007c-24.059,0 -43.632,19.569 -43.632,43.623c0,5.391 0.989,10.553 2.786,15.324c-16.051,18.748 -26.62,43.702 -31.664,63.222c-6.038,-1.316 -12.297,-2.028 -18.723,-2.028s-12.685,0.712 -18.723,2.028c-5.045,-19.52 -15.614,-44.475 -31.664,-63.222c1.796,-4.771 2.786,-9.933 2.786,-15.324c-0.001,-24.054 -19.575,-43.623 -43.633,-43.623c-24.059,0 -43.632,19.569 -43.632,43.623c0,24.054 19.573,43.623 43.632,43.623c6.336,0 12.356,-1.368 17.794,-3.807c12.769,16.245 20.834,38.584 23.655,52.216c-17.355,11.978 -30.207,30.021 -35.46,51.049c-21.765,-8.898 -45.266,-13.545 -69.142,-13.545c-84.971,0 -157.706,57.921 -174.308,138.223c-6.527,10.324 -11.59,21.906 -14.999,34.414c-6.951,9.672 -11.14,22.088 -11.14,35.614c0,12.843 3.782,24.677 10.113,34.12c12.087,50.326 50.602,85.19 94.681,85.19c5.211,0 10.353,-0.48 15.394,-1.412c11.418,5.851 27.556,12.692 50.871,12.692l142.368,0c48.561,0 82.547,-10.434 103.899,-31.897c25.718,-25.854 25.536,-60.73 25.415,-83.81c-0.009,-1.555 -0.017,-3.075 -0.017,-4.552l-0.028,-183.759c0,-29.968 -15.098,-56.465 -38.08,-72.326c2.82,-13.634 10.886,-35.973 23.655,-52.217c5.438,2.44 11.458,3.807 17.794,3.807c24.059,0 43.632,-19.569 43.632,-43.623c0.002,-24.055 -19.571,-43.623 -43.63,-43.623zm-412.676,381.41c0,-10.609 6.121,-22.428 14.905,-22.428s14.905,11.82 14.905,22.428s-6.121,22.428 -14.905,22.428s-14.905,-11.819 -14.905,-22.428zm71.403,85.922c-19.728,-0.001 -37.928,-11.713 -50.064,-30.615c23.595,-3.651 41.856,-27.052 41.856,-55.306c0,-27.61 -17.438,-50.587 -40.249,-55.028c12.178,-17.535 29.763,-28.362 48.457,-28.362c35.932,0 65.164,37.976 65.164,84.655c0,46.68 -29.232,84.656 -65.164,84.656zm146.492,-10.777c-14.558,14.635 -41.551,22.056 -80.227,22.056c-2.903,0 -5.611,-0.16 -8.188,-0.426c4.529,-3.965 8.809,-8.422 12.793,-13.355c17.851,-22.102 27.682,-51.279 27.682,-82.155c0,-30.877 -9.832,-60.052 -27.682,-82.155c-18.693,-23.144 -43.861,-35.889 -70.87,-35.889c-8.396,0 -16.611,1.231 -24.524,3.634c26.09,-37.6 70.548,-61.716 120.176,-61.716c23.262,0 46.068,5.37 66.521,15.591l0,169.603c0,1.534 0.009,3.112 0.017,4.727c0.109,20.658 0.231,44.073 -15.698,60.085z"/>
    </g>
   </g>
   <g transform="matrix(0.0785497968339379,0,0,0.09936568422212695,167.69425802564086,93.26110267633645) " id="svg_66"/>
   <g transform="matrix(0.0785497968339379,0,0,0.09936568422212695,167.69425802564086,93.26110267633645) " id="svg_67"/>
   <g transform="matrix(0.0785497968339379,0,0,0.09936568422212695,167.69425802564086,93.26110267633645) " id="svg_68"/>
   <g transform="matrix(0.0785497968339379,0,0,0.09936568422212695,167.69425802564086,93.26110267633645) " id="svg_69"/>
   <g transform="matrix(0.0785497968339379,0,0,0.09936568422212695,167.69425802564086,93.26110267633645) " id="svg_70"/>
   <g transform="matrix(0.0785497968339379,0,0,0.09936568422212695,167.69425802564086,93.26110267633645) " id="svg_71"/>
   <g transform="matrix(0.0785497968339379,0,0,0.09936568422212695,167.69425802564086,93.26110267633645) " id="svg_72"/>
   <g transform="matrix(0.0785497968339379,0,0,0.09936568422212695,167.69425802564086,93.26110267633645) " id="svg_73"/>
   <g transform="matrix(0.0785497968339379,0,0,0.09936568422212695,167.69425802564086,93.26110267633645) " id="svg_74"/>
   <g transform="matrix(0.0785497968339379,0,0,0.09936568422212695,167.69425802564086,93.26110267633645) " id="svg_75"/>
   <g transform="matrix(0.0785497968339379,0,0,0.09936568422212695,167.69425802564086,93.26110267633645) " id="svg_76"/>
   <g transform="matrix(0.0785497968339379,0,0,0.09936568422212695,167.69425802564086,93.26110267633645) " id="svg_77"/>
   <g transform="matrix(0.0785497968339379,0,0,0.09936568422212695,167.69425802564086,93.26110267633645) " id="svg_78"/>
   <g transform="matrix(0.0785497968339379,0,0,0.09936568422212695,167.69425802564086,93.26110267633645) " id="svg_79"/>
   <g transform="matrix(0.0785497968339379,0,0,0.09936568422212695,167.69425802564086,93.26110267633645) " id="svg_80"/>
  </g>
 </g>
</svg>